<svg width="60" height="60" viewBox="0 0 60 60" fill="none" xmlns="http://www.w3.org/2000/svg">
<path fill-rule="evenodd" clip-rule="evenodd" d="M25.8124 19.56C26.1307 19.713 26.3993 19.9529 26.5872 20.2518C26.7752 20.5508 26.8749 20.8968 26.8749 21.25V38.75C26.8749 39.2473 26.6773 39.7242 26.3257 40.0758C25.9741 40.4275 25.4972 40.625 24.9999 40.625C24.5026 40.625 24.0257 40.4275 23.6741 40.0758C23.3224 39.7242 23.1249 39.2473 23.1249 38.75V25.15L19.9224 27.715C19.73 27.8688 19.5092 27.9832 19.2726 28.0517C19.036 28.1202 18.7882 28.1414 18.5434 28.1141C18.2986 28.0868 18.0616 28.0116 17.8459 27.8927C17.6301 27.7738 17.4399 27.6136 17.2861 27.4213C17.1323 27.2289 17.0179 27.0081 16.9494 26.7715C16.881 26.5349 16.8597 26.2871 16.887 26.0423C16.9421 25.5479 17.1913 25.0956 17.5799 24.785L23.8299 19.785C24.1057 19.5647 24.438 19.4267 24.7887 19.3869C25.1394 19.3471 25.4943 19.4071 25.8124 19.56ZM35.6249 23.125C34.9618 23.125 34.326 23.3884 33.8571 23.8572C33.3883 24.3261 33.1249 24.962 33.1249 25.625V34.375C33.1249 35.038 33.3883 35.6739 33.8571 36.1428C34.326 36.6116 34.9618 36.875 35.6249 36.875C36.2879 36.875 36.9238 36.6116 37.3927 36.1428C37.8615 35.6739 38.1249 35.038 38.1249 34.375V25.625C38.1249 24.962 37.8615 24.3261 37.3927 23.8572C36.9238 23.3884 36.2879 23.125 35.6249 23.125ZM29.3749 25.625C29.3749 23.9674 30.0334 22.3777 31.2055 21.2056C32.3776 20.0335 33.9673 19.375 35.6249 19.375C37.2825 19.375 38.8722 20.0335 40.0443 21.2056C41.2164 22.3777 41.8749 23.9674 41.8749 25.625V34.375C41.8749 36.0326 41.2164 37.6223 40.0443 38.7944C38.8722 39.9665 37.2825 40.625 35.6249 40.625C33.9673 40.625 32.3776 39.9665 31.2055 38.7944C30.0334 37.6223 29.3749 36.0326 29.3749 34.375V25.625Z" fill="#222831"/>
<path fill-rule="evenodd" clip-rule="evenodd" d="M28.31 4.1875C28.463 3.86921 28.7029 3.60062 29.0018 3.41265C29.3008 3.22467 29.6468 3.12496 30 3.125C31.84 3.12833 33.6317 3.3075 35.375 3.6625C47.64 6.1525 56.875 16.995 56.875 30C56.875 44.8425 44.8425 56.875 30 56.875C15.1575 56.875 3.125 44.8425 3.125 30C3.125 18.975 9.7625 9.5075 19.25 5.3625C19.4769 5.255 19.7231 5.19417 19.9739 5.18361C20.2248 5.17305 20.4752 5.21297 20.7103 5.30103C20.9455 5.38908 21.1605 5.52346 21.3427 5.69619C21.525 5.86892 21.6706 6.0765 21.7711 6.30659C21.8716 6.53669 21.9248 6.78462 21.9277 7.03568C21.9305 7.28674 21.8829 7.53582 21.7877 7.76813C21.6924 8.00045 21.5515 8.21127 21.3733 8.38809C21.195 8.56492 20.9831 8.70414 20.75 8.7975C16.9292 10.465 13.6302 13.1344 11.2021 16.5232C8.77405 19.912 7.30722 23.8942 6.95683 28.0483C6.60644 32.2024 7.38552 36.374 9.21165 40.1216C11.0378 43.8692 13.843 47.0535 17.3305 49.3375C20.8181 51.6215 24.8581 52.9202 29.0233 53.0963C33.1884 53.2724 37.3237 52.3192 40.9915 50.3377C44.6594 48.3562 47.7234 45.4201 49.8593 41.8399C51.9952 38.2598 53.1235 34.1689 53.125 30C53.1242 25.0674 51.5471 20.2641 48.6238 16.2911C45.7005 12.3181 41.584 9.38332 36.875 7.915V11.25C36.8755 11.6388 36.755 12.0182 36.5304 12.3356C36.3057 12.653 35.988 12.8926 35.6211 13.0214C35.2542 13.1502 34.8563 13.1618 34.4826 13.0545C34.1088 12.9472 33.7777 12.7263 33.535 12.4225L28.535 6.1725C28.3142 5.89648 28.1759 5.56367 28.1361 5.21246C28.0963 4.86125 28.1566 4.50594 28.31 4.1875Z" fill="#222831"/>
</svg>
