<svg width="60" height="60" viewBox="0 0 60 60" fill="none" xmlns="http://www.w3.org/2000/svg">
<path fill-rule="evenodd" clip-rule="evenodd" d="M25.8124 19.56C26.1307 19.713 26.3993 19.9529 26.5872 20.2518C26.7752 20.5508 26.8749 20.8968 26.8749 21.25V38.75C26.8749 39.2473 26.6773 39.7242 26.3257 40.0758C25.9741 40.4275 25.4972 40.625 24.9999 40.625C24.5026 40.625 24.0257 40.4275 23.6741 40.0758C23.3224 39.7242 23.1249 39.2473 23.1249 38.75V25.15L19.9224 27.715C19.73 27.8688 19.5092 27.9832 19.2726 28.0517C19.036 28.1202 18.7882 28.1414 18.5434 28.1141C18.2986 28.0868 18.0616 28.0116 17.8459 27.8927C17.6301 27.7738 17.4399 27.6136 17.2861 27.4213C17.1323 27.2289 17.0179 27.0081 16.9494 26.7715C16.881 26.5349 16.8597 26.2871 16.887 26.0423C16.9421 25.5479 17.1913 25.0956 17.5799 24.785L23.8299 19.785C24.1057 19.5647 24.438 19.4267 24.7887 19.3869C25.1394 19.3471 25.4943 19.4071 25.8124 19.56ZM35.6249 23.125C34.9618 23.125 34.326 23.3884 33.8571 23.8572C33.3883 24.3261 33.1249 24.962 33.1249 25.625V34.375C33.1249 35.038 33.3883 35.6739 33.8571 36.1428C34.326 36.6116 34.9618 36.875 35.6249 36.875C36.2879 36.875 36.9238 36.6116 37.3927 36.1428C37.8615 35.6739 38.1249 35.038 38.1249 34.375V25.625C38.1249 24.962 37.8615 24.3261 37.3927 23.8572C36.9238 23.3884 36.2879 23.125 35.6249 23.125ZM29.3749 25.625C29.3749 23.9674 30.0334 22.3777 31.2055 21.2056C32.3776 20.0335 33.9673 19.375 35.6249 19.375C37.2825 19.375 38.8722 20.0335 40.0443 21.2056C41.2164 22.3777 41.8749 23.9674 41.8749 25.625V34.375C41.8749 36.0326 41.2164 37.6223 40.0443 38.7944C38.8722 39.9665 37.2825 40.625 35.6249 40.625C33.9673 40.625 32.3776 39.9665 31.2055 38.7944C30.0334 37.6223 29.3749 36.0326 29.3749 34.375V25.625Z" fill="#222831"/>
<path fill-rule="evenodd" clip-rule="evenodd" d="M31.69 4.1875C31.537 3.86921 31.2971 3.60062 30.9982 3.41265C30.6992 3.22467 30.3532 3.12496 30 3.125C28.16 3.12833 26.3683 3.3075 24.625 3.6625C12.3625 6.1525 3.125 16.995 3.125 30C3.125 44.8425 15.1575 56.875 30 56.875C44.8425 56.875 56.875 44.8425 56.875 30C56.875 18.975 50.2375 9.5075 40.75 5.3625C40.2976 5.1813 39.7925 5.18333 39.3416 5.36817C38.8907 5.553 38.5295 5.90612 38.3345 6.3527C38.1395 6.79928 38.126 7.30425 38.2969 7.7606C38.4678 8.21696 38.8096 8.58886 39.25 8.7975C43.0708 10.465 46.3698 13.1344 48.7979 16.5232C51.2259 19.912 52.6928 23.8942 53.0432 28.0483C53.3936 32.2024 52.6145 36.374 50.7884 40.1216C48.9622 43.8692 46.157 47.0535 42.6695 49.3375C39.1819 51.6215 35.1419 52.9202 30.9767 53.0963C26.8116 53.2724 22.6763 52.3192 19.0085 50.3377C15.3406 48.3562 12.2766 45.4201 10.1407 41.8399C8.00484 38.2598 6.87646 34.1689 6.875 30C6.87577 25.0674 8.45288 20.2641 11.3762 16.2911C14.2995 12.3181 18.416 9.38332 23.125 7.915V11.25C23.1245 11.6388 23.245 12.0182 23.4696 12.3356C23.6943 12.653 24.012 12.8926 24.3789 13.0214C24.7458 13.1502 25.1437 13.1618 25.5174 13.0545C25.8912 12.9472 26.2223 12.7263 26.465 12.4225L31.465 6.1725C31.6858 5.89648 31.8241 5.56367 31.8639 5.21246C31.9037 4.86125 31.8434 4.50594 31.69 4.1875Z" fill="#222831"/>
</svg>
